<?xml version="1.0" standalone="no"?>
<!DOCTYPE svg PUBLIC "-//W3C//DTD SVG 20010904//EN"
 "http://www.w3.org/TR/2001/REC-SVG-20010904/DTD/svg10.dtd">
<svg version="1.0" xmlns="http://www.w3.org/2000/svg"
 width="120.000000pt" height="120.000000pt" viewBox="0 0 120.000000 120.000000"
 preserveAspectRatio="xMidYMid meet">
<metadata>
Created by potrace 1.16, written by Peter Selinger 2001-2019
</metadata>
<g transform="translate(0.000000,120.000000) scale(0.100000,-0.100000)"
fill="#000000" stroke="none">
<path d="M0 785 l0 -415 35 0 c22 0 38 -6 41 -15 4 -9 19 -15 35 -15 17 0 32
-6 35 -15 4 -9 19 -15 35 -15 16 0 29 -4 29 -10 0 -5 11 -10 25 -10 16 0 25
-6 25 -15 0 -10 11 -15 35 -15 19 0 35 -4 35 -10 0 -5 14 -10 30 -10 18 0 33
-6 36 -15 4 -8 17 -15 30 -15 13 0 24 -4 24 -10 0 -5 13 -10 30 -10 16 0 33
-6 37 -14 4 -8 22 -16 38 -18 29 -3 30 -5 33 -60 l3 -58 -101 0 c-60 0 -100 4
-100 10 0 6 -18 10 -40 10 -37 0 -40 2 -40 28 0 37 -36 52 -122 52 -66 0 -68
1 -68 25 0 24 -3 25 -54 25 -54 0 -55 0 -59 33 -2 17 -5 -25 -5 -95 l-2 -128
305 0 305 0 0 30 c0 27 3 30 30 30 17 0 30 5 30 10 0 6 11 10 25 10 16 0 25 6
25 15 0 10 10 15 34 15 21 0 36 6 40 15 3 8 17 15 31 15 14 0 25 5 25 10 0 6
9 10 21 10 11 0 27 7 35 15 9 8 26 15 40 15 13 0 24 5 24 10 0 6 11 10 24 10
13 0 26 7 30 15 3 8 17 15 31 15 14 0 25 5 25 10 0 6 27 10 60 10 l60 0 0 390
0 390 -205 0 -205 0 0 54 c0 52 1 54 31 60 17 3 110 6 205 6 167 0 174 1 174
20 0 20 -7 20 -600 20 l-600 0 0 -415z m971 135 c18 -10 19 -24 19 -278 0
-195 -3 -271 -12 -280 -17 -17 -249 -17 -266 0 -7 7 -12 21 -12 32 0 18 -2 17
-28 -7 -25 -24 -36 -27 -94 -27 -57 0 -69 3 -92 26 l-26 27 0 -30 c0 -26 -5
-31 -31 -37 -49 -9 -205 -7 -233 4 l-26 10 0 279 c0 214 3 281 13 284 25 11
768 7 788 -3z"/>
<path d="M1080 107 c0 -13 -65 -37 -100 -37 -11 0 -20 -7 -20 -15 0 -8 -7 -15
-15 -15 -8 0 -15 -9 -15 -20 0 -19 7 -20 135 -20 l135 0 0 60 0 60 -60 0 c-41
0 -60 -4 -60 -13z"/>
</g>
</svg>
