<svg width="179" height="28" viewBox="0 0 179 28" fill="none" xmlns="http://www.w3.org/2000/svg">
<g clip-path="url(#clip0_849_268)">
<path d="M44.3489 13.65C38.9044 15.5478 34.5489 20.7822 33.5222 27.3234C33.5144 27.3761 33.5181 27.4299 33.5328 27.4811C33.5476 27.5324 33.5731 27.5798 33.6077 27.6204C33.6424 27.6609 33.6853 27.6935 33.7336 27.7161C33.7819 27.7386 33.8345 27.7506 33.8878 27.7511H38.2744C39.0056 27.7521 39.716 27.5083 40.2925 27.0587C40.869 26.609 41.2784 25.9794 41.4556 25.27L44.3489 13.65Z" fill="#E94D11"/>
<path d="M17.2433 27.2222C17.2189 27.2789 17.2089 27.3409 17.2143 27.4024C17.2196 27.464 17.2402 27.5233 17.2741 27.5749C17.308 27.6266 17.3542 27.669 17.4086 27.6984C17.463 27.7278 17.5238 27.7432 17.5856 27.7433H26.6622C26.7945 27.7431 26.9231 27.6997 27.0284 27.6197C27.1337 27.5396 27.2099 27.4274 27.2456 27.3C28.3592 23.336 30.5601 19.7628 33.5993 16.9849C36.6384 14.2069 40.3944 12.335 44.4422 11.5811C44.5739 11.5548 44.6955 11.492 44.7932 11.3998C44.8908 11.3077 44.9606 11.1899 44.9944 11.06L45.5078 8.99886C33.9344 9.55109 22.4 15.2911 17.2433 27.23M47.2967 1.78886L47.7478 0.00775146H9.13111C8.30772 0.00790251 7.50808 0.283689 6.85966 0.79115C6.21124 1.29861 5.75136 2.00853 5.55333 2.80775L3.90444 9.44998C3.87986 9.55253 3.88434 9.65991 3.91736 9.76007C3.95038 9.86023 4.01064 9.94921 4.0914 10.017C4.17215 10.0849 4.2702 10.1289 4.37455 10.1441C4.47891 10.1593 4.58544 10.1452 4.68222 10.1033C16.1544 5.03997 30.8078 2.38775 46.6044 2.32553C46.765 2.32534 46.9209 2.27173 47.0477 2.17316C47.1744 2.07459 47.2647 1.93665 47.3044 1.78109" fill="#E94D11"/>
<path d="M1.50111 19.04L0.0699997 24.8266C-0.0196355 25.1737 -0.0281092 25.5367 0.0452361 25.8876C0.118581 26.2384 0.271774 26.5677 0.492927 26.8498C0.714081 27.1318 0.99725 27.3592 1.32046 27.5142C1.64368 27.6691 1.99825 27.7475 2.35667 27.7433H9.17778C9.33134 27.7476 9.48272 27.7063 9.61283 27.6246C9.74295 27.5429 9.84596 27.4246 9.90889 27.2844C15.6722 15.5089 27.5722 7.73885 45.5078 6.92219C45.6609 6.91535 45.8078 6.85951 45.9268 6.7629C46.0459 6.66628 46.1307 6.53399 46.1689 6.38552L46.6433 4.44885C27.6344 4.65107 13.5956 9.22441 2.31 17.78C1.89897 18.0931 1.60793 18.5379 1.48556 19.04" fill="#E94D11"/>
<path d="M123.239 20.3L123.892 17.9667H135.753L135.232 20.3H138.888L140.319 14.6689H138.406L142.03 0.0777588H130.511C128.567 0.0777588 128.279 0.855537 127.851 2.13887C127.252 3.88887 126.848 5.28887 126.467 6.53331C125.526 9.64443 124.787 12.46 121.901 14.6611H120.867L119.474 20.2922L123.239 20.3ZM129.959 7.73109C130.566 5.70109 130.861 4.82998 131.133 3.95109C131.178 3.74703 131.295 3.56578 131.461 3.4402C131.628 3.31463 131.835 3.25305 132.043 3.26665H137.021L134.229 14.6689H126.684C128.147 13.2611 129.018 10.78 129.967 7.73109M58.0222 24.08H59.5078C59.7947 24.0432 60.0862 24.0671 60.3633 24.15C60.4859 24.1991 60.5884 24.2878 60.6547 24.402C60.7209 24.5162 60.747 24.6492 60.7289 24.78C60.6905 25.1323 60.6042 25.4777 60.4722 25.8067C60.4 26.0221 60.2653 26.2111 60.0852 26.3497C59.9051 26.4882 59.6878 26.5699 59.4611 26.5844H58.0611L57.7422 27.7667H57.0344L58.0222 24.08ZM59.0178 25.9622C59.4922 25.9622 59.64 25.9155 59.7955 25.7133C59.9044 25.4823 59.9744 25.2358 60.0056 24.9822C60.0056 24.71 59.9433 24.6633 59.4611 24.6633H58.5978L58.2556 25.9622H59.0178ZM75.4678 27.2222C75.8333 27.2222 76.0044 26.9811 76.1367 26.3822L76.7356 24.1189H79.6133L78.6333 27.7978H77.9256L78.7422 24.6867H77.2722L76.8133 26.4444C76.58 27.3778 76.1211 27.7822 75.2967 27.7978L75.4678 27.2222ZM87.9744 27.0978L87.5622 27.8055H86.7844L89.0167 24.1267H90.0589L90.3311 27.8055H89.6078L89.5533 27.0978H87.9744ZM89.4133 24.6633L88.2855 26.5689H89.5455L89.4133 24.6633ZM92.9055 27.8055L93.2322 26.5844H92.2444C92.1614 26.5736 92.0771 26.5797 91.9965 26.6022C91.9159 26.6247 91.8407 26.6633 91.7753 26.7156C91.71 26.7678 91.6559 26.8328 91.6162 26.9065C91.5765 26.9802 91.5521 27.0611 91.5444 27.1444L91.3656 27.8055H90.6578L90.8678 27.0278C90.897 26.8379 90.9899 26.6637 91.1312 26.5336C91.2726 26.4036 91.4539 26.3255 91.6455 26.3122C91.2644 26.2344 91.14 26.1022 91.1633 25.7755C91.1874 25.5562 91.2349 25.34 91.3033 25.13C91.5211 24.4222 91.9022 24.1733 92.7422 24.1733H94.5467L93.5744 27.8522L92.9055 27.8055ZM93.6833 24.6944H92.6489C92.3144 24.6944 92.1589 24.7644 92.0578 24.9667C91.9745 25.1713 91.917 25.3856 91.8867 25.6044C91.8867 25.8455 92.0033 25.9389 92.3689 25.9389H93.3567L93.6833 24.6944ZM99.1122 25.5655H99.4467L101.064 24.0644H101.928L99.9678 25.8611L101.111 27.7433H100.217L99.2911 26.1722H98.9567L98.5367 27.7433H97.8289L98.8089 24.0644H99.5089L99.1122 25.5655ZM105.28 24.2822C105.354 24.3663 105.409 24.4654 105.442 24.5729C105.474 24.6803 105.482 24.7934 105.467 24.9044C105.416 25.3111 105.328 25.7121 105.202 26.1022C105.134 26.5661 104.934 27.0007 104.627 27.3544C104.42 27.5263 104.18 27.6526 103.921 27.7249C103.662 27.7973 103.391 27.8142 103.126 27.7744C102.776 27.8156 102.422 27.7647 102.099 27.6267C101.975 27.559 101.876 27.4544 101.814 27.3276C101.753 27.2007 101.733 27.0578 101.757 26.9189C101.804 26.4957 101.895 26.0787 102.029 25.6744C102.1 25.2014 102.314 24.7615 102.643 24.4144C102.978 24.1189 103.32 24.0255 104.16 24.0255C104.813 24.0255 105.054 24.08 105.272 24.2822M103.048 24.8967C102.874 25.1761 102.76 25.4886 102.713 25.8144C102.611 26.1178 102.541 26.4304 102.503 26.7478C102.503 26.9422 102.503 27.0433 102.651 27.0978C102.872 27.1678 103.105 27.1888 103.336 27.16C104.02 27.16 104.176 27.0511 104.37 26.4678C104.37 26.3511 104.424 26.3278 104.58 25.69C104.652 25.4808 104.699 25.2645 104.72 25.0444C104.72 24.85 104.72 24.7411 104.572 24.6867C104.364 24.6194 104.144 24.5982 103.927 24.6244C103.374 24.6244 103.211 24.6711 103.056 24.8811M110.017 27.7433H109.324L109.853 25.7367C109.923 25.48 109.947 25.4022 110.094 24.9589L110.18 24.6867L110.024 24.9433C109.737 25.4333 109.667 25.5578 109.566 25.7211L108.204 27.7978H107.567L107.294 25.7444C107.294 25.5733 107.294 25.4567 107.232 24.9667V24.71C107.092 25.3867 107.053 25.4878 106.991 25.7833L106.454 27.79H105.762L106.742 24.1111H107.878L108.08 25.8144C108.08 25.9233 108.127 26.32 108.15 26.8333L108.298 26.5767C108.57 26.11 108.648 25.9778 108.749 25.7989L109.853 24.0878H111.012L110.017 27.7433ZM112.552 24.6633L111.743 27.7433H111.036L112.016 24.0644H115.127L114.154 27.7433H113.447L114.263 24.6633H112.552ZM116.029 27.0355L115.617 27.7433H114.839L117.04 24.0644H118.082L118.354 27.7433H117.631L117.584 27.0355H116.029ZM117.468 24.6011L116.34 26.5067H117.6L117.468 24.6011ZM122.212 27.7355H121.504L121.924 26.1722H120.221L119.801 27.7355H119.093L120.073 24.0644H120.781L120.377 25.5655H122.088L122.484 24.0644H123.184L122.212 27.7355ZM125.673 27.7433L126.233 25.6278C126.288 25.41 126.35 25.2078 126.366 25.1533L126.436 24.9122L126.506 24.6789L124.351 27.7433H123.239L124.211 24.0644H124.903L124.343 26.18C124.289 26.3978 124.227 26.6078 124.211 26.6622L124.141 26.9033L124.071 27.1367L126.226 24.0644H127.307L126.35 27.7433H125.673ZM129.632 27.7433L129.959 26.5222H128.971C128.888 26.5117 128.804 26.518 128.723 26.5407C128.643 26.5633 128.568 26.6019 128.503 26.6541C128.437 26.7064 128.383 26.7712 128.343 26.8447C128.304 26.9182 128.279 26.999 128.271 27.0822L128.092 27.7433H127.384L127.594 26.9655C127.624 26.7758 127.717 26.6016 127.858 26.4716C127.999 26.3416 128.181 26.2634 128.372 26.25C127.991 26.1722 127.867 26.04 127.89 25.7133C127.914 25.4938 127.961 25.2775 128.03 25.0678C128.248 24.36 128.629 24.1111 129.469 24.1111H131.273L130.301 27.79L129.632 27.7433ZM130.41 24.6322H129.376C129.041 24.6322 128.886 24.7022 128.784 24.9044C128.701 25.1091 128.644 25.3233 128.613 25.5422C128.613 25.7833 128.73 25.8767 129.096 25.8767H130.083L130.41 24.6322ZM86.2089 27.7744H85.5089L85.9211 26.2033H84.2178L83.7978 27.7744H83.0978L84.07 24.0955H84.7778L84.3733 25.5967H86.0844L86.4811 24.0955H87.1889L86.2089 27.7744ZM81.3011 24.1267L80.9822 25.3167H81.8067C82.4989 25.3167 82.4989 25.3167 82.67 25.4022C82.7829 25.4536 82.8755 25.5411 82.9333 25.651C82.991 25.7608 83.0106 25.8867 82.9889 26.0089C82.9492 26.3727 82.8575 26.7289 82.7167 27.0667C82.6305 27.2729 82.4875 27.4503 82.3044 27.5784C82.1212 27.7065 81.9055 27.7798 81.6822 27.79H79.6133L80.5933 24.1033L81.3011 24.1267ZM80.4844 27.2378H81.3478C81.8222 27.2378 81.9233 27.1911 82.0478 26.9422C82.1458 26.719 82.2111 26.4833 82.2422 26.2422C82.2422 25.9933 82.1333 25.9311 81.6278 25.9311H80.85L80.4844 27.2378ZM53.2933 26.3667V26.4911C53.13 27.1055 52.9978 27.3311 52.6711 27.51C52.2674 27.7044 51.8156 27.7744 51.3722 27.7122C50.7578 27.7122 50.54 27.6655 50.3378 27.4711C50.2626 27.3916 50.2051 27.2972 50.1689 27.194C50.1327 27.0909 50.1187 26.9812 50.1278 26.8722C50.2055 26.3729 50.3144 25.8798 50.4544 25.3944C50.6644 24.6167 50.8589 24.3678 51.2789 24.15C51.6926 23.9716 52.1457 23.9046 52.5933 23.9555C52.8362 23.9375 53.0804 23.9585 53.3167 24.0178C53.4431 24.059 53.55 24.145 53.6173 24.2596C53.6847 24.3742 53.7077 24.5095 53.6822 24.64C53.6647 24.8324 53.6282 25.0225 53.5733 25.2078H52.8733V25.1144C52.8967 25.0304 52.9122 24.9449 52.92 24.8578C52.92 24.6244 52.8033 24.5622 52.3055 24.5622C51.6211 24.5622 51.4267 24.6478 51.2867 25.0055C51.1117 25.564 50.9833 26.1364 50.9055 26.7167C50.9055 27.02 51.0378 27.1055 51.6055 27.1055C52.3833 27.1055 52.4611 27.0278 52.6244 26.3278L53.2933 26.3667ZM55.3 27.7044H54.5922L55.4011 24.6478H54.3433L54.5067 24.0255H57.3611L57.1978 24.6478H56.1089L55.3 27.7044ZM64.2444 24.3211C64.3186 24.4052 64.3737 24.5044 64.4059 24.6118C64.4381 24.7192 64.4467 24.8323 64.4311 24.9433C64.3816 25.3501 64.293 25.7512 64.1667 26.1411C64.0982 26.6049 63.8985 27.0393 63.5911 27.3933C63.3846 27.5652 63.1442 27.6914 62.8855 27.7638C62.6268 27.8362 62.3557 27.8531 62.09 27.8133C61.7407 27.8549 61.3867 27.8039 61.0633 27.6655C60.9397 27.5979 60.8402 27.4933 60.7789 27.3665C60.7175 27.2396 60.6973 27.0967 60.7211 26.9578C60.7678 26.5347 60.8595 26.1178 60.9933 25.7133C61.0642 25.2403 61.2786 24.8004 61.6078 24.4533C61.9422 24.1578 62.2844 24.0644 63.1244 24.0644C63.7778 24.0644 64.0189 24.1189 64.2367 24.3211M62.0122 24.9355C61.838 25.2179 61.7244 25.5329 61.6778 25.8611C61.5767 26.1644 61.5059 26.4771 61.4678 26.7944C61.4678 26.9889 61.4678 27.09 61.6156 27.1444C61.8361 27.2161 62.0695 27.24 62.3 27.2144C62.9844 27.2144 63.14 27.1055 63.3344 26.5222C63.3344 26.4055 63.3889 26.3822 63.5444 25.7444C63.616 25.5352 63.6634 25.319 63.6844 25.0989C63.6844 24.9044 63.6844 24.7955 63.5367 24.7411C63.3286 24.6735 63.1083 24.6523 62.8911 24.6789C62.3389 24.6789 62.1755 24.7255 62.02 24.9355M66.85 27.7589L67.41 25.6433C67.4644 25.4255 67.5267 25.2155 67.5422 25.1689L67.6122 24.9278L67.6822 24.6944L65.5278 27.7589H64.4544L65.4267 24.08H66.1189L65.5589 26.1955C65.5044 26.4133 65.4422 26.6233 65.4267 26.6778L65.3567 26.9189L65.2867 27.1522L67.4411 24.08H68.5222L67.5422 27.7589H66.85ZM70.1089 27.79H69.4011L70.21 24.7255H69.1444L69.3078 24.1111H72.17L72.0067 24.7255H70.9178L70.1089 27.79ZM73.0878 25.6511H74.7989L74.6589 26.1644H72.9556L72.6756 27.2067H74.5033L74.3478 27.79H71.8122L72.7922 24.1111H75.3044L75.1489 24.6944H73.3367L73.0878 25.6511Z" fill="white"/>
<path d="M121.248 14.6766C121.649 14.6994 122.045 14.5811 122.368 14.3422C122.342 14.7297 122.176 15.0945 121.901 15.3689L121.248 14.6766ZM74.8767 0.0777588H85.1278C86.6055 0.0777588 87.5544 0.334425 88.0367 0.94887C88.6278 1.72665 88.8144 2.89331 88.27 4.88442C87.6322 7.44331 86.4344 8.48553 84.4355 8.94442V8.99887C86.4033 9.41109 87.1189 10.2278 86.4033 13.0589C85.8122 15.3922 85.0967 16.2789 84.1555 17.0178C83.1566 17.6968 81.9629 18.0301 80.7567 17.9666H70.4355L74.8767 0.0777588ZM82.39 10.6555C82.2344 10.5 82.0322 10.4222 81.3711 10.4222H76.5178L75.4367 14.7389H80.2511C80.8889 14.7389 81.1455 14.7389 81.3789 14.5366C81.6122 14.3344 81.8922 14.1322 82.25 12.6466C82.6078 11.1611 82.5533 10.8811 82.4055 10.6555M82.0167 7.48998C82.6778 7.48998 82.8878 7.48998 83.09 7.31109C83.5669 6.75471 83.8699 6.07044 83.9611 5.34331C84.2411 4.16887 84.1944 3.67887 84.0389 3.47665C83.8833 3.27442 83.7044 3.27442 83.02 3.27442H78.3144L77.2955 7.48998H82.0167ZM99.8822 3.39887L96.2578 17.9589H92.0889L95.7211 3.39887H90.2767L91.0933 0.0777588H105.871L105.054 3.39887H99.8822ZM117.927 0.0777588C119.692 0.0777588 120.454 0.334425 120.944 0.94887C121.722 1.88998 122.041 3.53109 120.688 9.0222C119.334 14.5133 118.16 16.1233 116.908 17.0955C116.13 17.71 115.243 17.9666 113.486 17.9666H107.94C106.174 17.9666 105.412 17.71 104.922 17.0955C104.144 16.1233 103.794 14.49 105.179 9.0222C106.563 3.55442 107.683 1.89776 108.959 0.94887C109.737 0.334425 110.623 0.0777588 112.381 0.0777588H117.927ZM108.648 14.4278C108.803 14.5833 109.006 14.6611 109.822 14.6611H113.221C114.038 14.6611 114.294 14.5833 114.497 14.4278C114.699 14.2722 115.274 13.5566 116.41 9.03776C117.546 4.51887 117.351 3.84998 117.188 3.64776C117.024 3.44554 116.853 3.39109 116.037 3.39109H112.638C111.821 3.39109 111.564 3.46887 111.331 3.64776C111.098 3.82665 110.553 4.48776 109.441 9.03776C108.329 13.5878 108.469 14.2022 108.663 14.4278M156.411 0.0777588C158.177 0.0777588 158.939 0.334425 159.429 0.94887C160.207 1.88998 160.526 3.53109 159.172 9.0222C157.819 14.5133 156.644 16.1233 155.392 17.0955C154.614 17.71 153.736 17.9666 151.97 17.9666H146.424C144.659 17.9666 143.897 17.71 143.407 17.0955C142.629 16.1233 142.279 14.49 143.663 9.0222C145.048 3.55442 146.168 1.89776 147.443 0.94887C148.221 0.334425 149.108 0.0777588 150.866 0.0777588H156.411ZM147.14 14.4278C147.296 14.5833 147.498 14.6611 148.314 14.6611H151.713C152.53 14.6611 152.787 14.5833 152.989 14.4278C153.191 14.2722 153.767 13.5566 154.902 9.03776C156.038 4.51887 155.851 3.84998 155.68 3.64776C155.509 3.44554 155.346 3.39109 154.529 3.39109H151.13C150.313 3.39109 150.057 3.46887 149.831 3.64776C149.606 3.82665 149.053 4.48776 147.941 9.03776C146.829 13.5878 146.969 14.2022 147.163 14.4278M174.619 11.1455C173.654 11.7379 172.527 12.0101 171.399 11.9233H165.954L164.461 17.9666H160.3L164.741 0.0777588H174.339C175.793 0.0777588 176.711 0.256648 177.201 0.793314C177.839 1.57109 178.274 2.68331 177.427 6.00442C176.579 9.32553 175.591 10.4222 174.619 11.1378M170.582 8.60998C171.523 8.60998 171.811 8.55553 172.037 8.40776C172.262 8.25998 172.729 7.6922 173.164 5.95776C173.6 4.22331 173.444 3.78776 173.242 3.55442C173.04 3.32109 172.83 3.32109 171.889 3.32109H168.07L166.794 8.60998H170.582ZM62.2533 0.0777588C57.4389 0.0777588 56.1244 0.902203 54.7867 6.14442L51.7533 17.9666H55.9922L57.6333 11.5344H64.0655L62.4633 17.9666H66.6944L71.1433 0.0777588H62.2533ZM58.4344 8.3922C58.9167 6.5022 59.3055 4.97776 59.4067 4.6122C59.7411 3.32887 60.7133 3.26665 61.5767 3.26665H66.2433L64.8667 8.3922H58.4344Z" fill="white"/>
</g>
<defs>
<clipPath id="clip0_849_268">
<rect width="178.111" height="28" fill="white"/>
</clipPath>
</defs>
</svg>
